<?xml version="1.0" encoding="UTF-8" standalone="no"?>
<!-- Generator: Adobe Illustrator 18.0.0, SVG Export Plug-In . SVG Version: 6.00 Build 0)  -->

<svg
   xmlns:dc="http://purl.org/dc/elements/1.1/"
   xmlns:cc="http://creativecommons.org/ns#"
   xmlns:rdf="http://www.w3.org/1999/02/22-rdf-syntax-ns#"
   xmlns:svg="http://www.w3.org/2000/svg"
   xmlns="http://www.w3.org/2000/svg"
   xmlns:sodipodi="http://sodipodi.sourceforge.net/DTD/sodipodi-0.dtd"
   xmlns:inkscape="http://www.inkscape.org/namespaces/inkscape"
   version="1.1"
   x="0px"
   y="0px"
   viewBox="0 0 16 28"
   enable-background="new 0 0 16 28"
   xml:space="preserve"
   id="svg4714"
   inkscape:version="0.91 r13725"
   sodipodi:docname="icon-right-arrow-small-white.svg"><metadata
     id="metadata4731"><rdf:RDF><cc:Work
         rdf:about=""><dc:format>image/svg+xml</dc:format><dc:type
           rdf:resource="http://purl.org/dc/dcmitype/StillImage" /><dc:title></dc:title></cc:Work></rdf:RDF></metadata><defs
     id="defs4729" /><sodipodi:namedview
     pagecolor="#ffffff"
     bordercolor="#666666"
     borderopacity="1"
     objecttolerance="10"
     gridtolerance="10"
     guidetolerance="10"
     inkscape:pageopacity="0"
     inkscape:pageshadow="2"
     inkscape:window-width="1680"
     inkscape:window-height="988"
     id="namedview4727"
     showgrid="false"
     inkscape:zoom="8.4285714"
     inkscape:cx="8"
     inkscape:cy="14"
     inkscape:window-x="1672"
     inkscape:window-y="-8"
     inkscape:window-maximized="1"
     inkscape:current-layer="svg4714" /><g
     id="Layer_4"
     display="none"><rect
       x="-14"
       y="-8"
       display="inline"
       fill="#EFEFEF"
       width="44"
       height="44"
       id="rect4717" /></g><g
     id="Layer_3"><path
       fill="#010202"
       d="M15.4,12.6l-12-12c-0.8-0.8-2-0.8-2.8,0c-0.8,0.8-0.8,2,0,2.8L11.2,14L0.6,24.6c-0.8,0.8-0.8,2,0,2.8   C1,27.8,1.5,28,2,28s1-0.2,1.4-0.6l12-12C16.2,14.6,16.2,13.4,15.4,12.6z"
       id="path4720"
       style="fill:#ffffff;fill-opacity:1" /></g><g
     id="Layer_2"
     display="none"><g
       display="inline"
       id="g4723"><path
         d="M46.9-24.9v77.8h-77.8v-77.8H46.9 M48-26h-80v80h80V-26L48-26z"
         id="path4725" /></g></g></svg>